# xmcd
#
# Track frame offsets: 
#        150
#        13328
#        27564
#        43518
#        60759
#        74539
#        86127
#        105286
#        118861
#        139317
#        167022
#        178565
#
# Disc length: 2571 seconds
#
# Revision: 2
# Processed by: cddbd v1.5.2PL0 Copyright (c) Steve Scherf et al.
# Submitted via: ExactAudioCopy v1.0b4
#
DISCID=a20a090c
DTITLE=Calvin Russell - Dawg Eat Dawg
DYEAR=2009
DGENRE=Roots Rock
TTITLE0=Like a revolution
TTITLE1=5m2
TTITLE2=Halloween
TTITLE3=To you my love
TTITLE4=Texas blues
TTITLE5=Sweetest tenderness
TTITLE6=Rolling wheel
TTITLE7=Gangster of love
TTITLE8=Are you waiting ?
TTITLE9=Dawg eat dawg
TTITLE10=Too old to grow up now
TTITLE11=5m2 (Feat. Gйrard Lanvin)
EXTD=YEAR: 2009
EXTT0=
EXTT1=
EXTT2=
EXTT3=
EXTT4=
EXTT5=
EXTT6=
EXTT7=
EXTT8=
EXTT9=
EXTT10=
EXTT11=
PLAYORDER=
